<svg xmlns="http://www.w3.org/2000/svg" xmlns:xlink="http://www.w3.org/1999/xlink" width="500" zoomAndPan="magnify" viewBox="0 0 375 374.999991" height="500" preserveAspectRatio="xMidYMid meet" version="1.0"><defs><clipPath id="56b6564f38"><path d="M 125.484375 56.25 L 249.234375 56.25 L 249.234375 318.75 L 125.484375 318.75 Z M 125.484375 56.25 " clip-rule="nonzero"/></clipPath></defs><g clip-path="url(#56b6564f38)"><path fill="#709a06" d="M 220.902344 99.785156 L 249.515625 99.785156 L 249.515625 56.644531 L 212.976562 56.644531 L 212.976562 56.808594 C 164.9375 58.570312 155.035156 85.480469 154.207031 113.929688 L 154.097656 113.929688 L 154.097656 143.863281 L 125.484375 143.863281 L 125.484375 187.058594 L 154.097656 187.058594 L 154.097656 318.355469 L 205.4375 318.355469 L 205.4375 187.058594 L 242.253906 187.058594 L 249.515625 143.863281 L 205.4375 143.863281 L 205.4375 117.066406 C 205.4375 107.546875 211.820312 99.785156 220.902344 99.785156 Z M 220.902344 99.785156 " fill-opacity="1" fill-rule="nonzero"/></g></svg>