<svg xmlns="http://www.w3.org/2000/svg" xmlns:xlink="http://www.w3.org/1999/xlink" width="500" zoomAndPan="magnify" viewBox="0 0 375 374.999991" height="500" preserveAspectRatio="xMidYMid meet" version="1.0"><defs><clipPath id="a7e786c5a5"><path d="M 61.5 61 L 313.5 61 L 313.5 314 L 61.5 314 Z M 61.5 61 " clip-rule="nonzero"/></clipPath></defs><g clip-path="url(#a7e786c5a5)"><path fill="#709a06" d="M 187.5 61.5 C 117.914062 61.5 61.5 117.914062 61.5 187.5 C 61.5 257.085938 117.914062 313.5 187.5 313.5 C 257.085938 313.5 313.5 257.085938 313.5 187.5 C 313.5 117.914062 257.085938 61.5 187.5 61.5 Z M 82.5 187.5 C 82.5 129.511719 129.511719 82.5 187.5 82.5 C 245.492188 82.5 292.5 129.511719 292.5 187.5 C 292.5 234.753906 261.285156 274.71875 218.351562 287.894531 C 219.523438 266.671875 219.121094 253.527344 217.140625 248.457031 C 215.054688 243.109375 213.355469 240.914062 212.332031 239.601562 C 211.664062 238.738281 211.289062 238.253906 211.289062 237.507812 C 211.289062 236.246094 212.175781 235.332031 213.949219 234.765625 C 229.421875 231.347656 239.796875 221.839844 245.074219 206.242188 C 252.386719 184.632812 241.949219 168.921875 237.726562 162.5625 C 237.375 162.039062 237.070312 161.578125 236.820312 161.183594 C 233.535156 155.996094 237.835938 143.382812 242.976562 133.285156 C 225.503906 129.78125 218.832031 137.898438 215.003906 142.554688 C 213.441406 144.457031 212.351562 145.777344 211.199219 145.496094 C 210.167969 145.246094 209.054688 144.757812 207.722656 144.171875 C 203.910156 142.496094 198.28125 140.023438 187.5 140.023438 C 174.128906 140.023438 165.269531 144.691406 163.914062 145.40625 C 163.796875 145.46875 163.734375 145.496094 163.734375 145.496094 C 156.707031 135.703125 146.726562 131.632812 133.789062 133.285156 C 137.351562 147.519531 137.621094 156.820312 134.59375 161.183594 C 130.054688 167.726562 121.542969 182.953125 128.148438 206.242188 C 134.757812 229.535156 158.808594 234.765625 163.390625 234.765625 L 163.417969 234.773438 C 163.78125 234.851562 167.152344 235.578125 166.140625 238.425781 C 165.941406 239.183594 165.808594 240.214844 165.660156 241.375 C 165.183594 245.105469 164.535156 250.171875 160.960938 251.820312 C 156.269531 253.980469 145.921875 255.160156 141.59375 252.464844 C 140.152344 251.566406 139.117188 249.683594 137.867188 247.421875 C 135.371094 242.890625 132.027344 236.820312 122.878906 233.992188 C 109.160156 229.757812 110.019531 235.359375 113.441406 236.734375 C 114.195312 237.035156 115.195312 237.320312 116.335938 237.644531 C 120.375 238.785156 126.1875 240.433594 129.167969 245.226562 C 130.039062 246.628906 130.9375 248.171875 131.855469 249.742188 C 134.953125 255.050781 138.277344 260.742188 141.59375 262.921875 C 144.460938 264.808594 151.332031 265.5625 162.210938 265.1875 C 161.738281 275.457031 161.484375 283.472656 161.453125 289.242188 C 116.0625 277.660156 82.5 236.5 82.5 187.5 Z M 82.5 187.5 " fill-opacity="0.85" fill-rule="evenodd"/></g></svg>