<svg xmlns="http://www.w3.org/2000/svg" xmlns:xlink="http://www.w3.org/1999/xlink" width="500" zoomAndPan="magnify" viewBox="0 0 375 374.999991" height="500" preserveAspectRatio="xMidYMid meet" version="1.0"><defs><clipPath id="063d532891"><path d="M 56.25 56.25 L 318.75 56.25 L 318.75 318.75 L 56.25 318.75 Z M 56.25 56.25 " clip-rule="nonzero"/></clipPath></defs><g clip-path="url(#063d532891)"><path fill="#709a06" d="M 255.039062 318.75 L 120.65625 318.75 C 85.144531 318.75 56.597656 290.203125 56.597656 254.691406 L 56.597656 120.308594 C 56.597656 84.796875 85.144531 56.25 120.65625 56.25 L 254.34375 56.25 C 289.855469 56.25 318.402344 84.796875 318.402344 120.308594 L 318.402344 253.996094 C 318.402344 289.507812 289.855469 318.054688 254.34375 318.054688 Z M 120.65625 77.136719 C 96.984375 77.136719 77.488281 96.632812 77.488281 120.308594 L 77.488281 253.996094 C 77.488281 277.667969 96.984375 297.164062 120.65625 297.164062 L 254.34375 297.164062 C 278.015625 297.164062 297.511719 277.667969 297.511719 253.996094 L 297.511719 120.308594 C 297.511719 96.632812 278.015625 77.136719 254.34375 77.136719 Z M 120.65625 77.136719 " fill-opacity="1" fill-rule="nonzero"/></g><path fill="#709a06" d="M 188.195312 272.097656 C 142.242188 272.097656 105.339844 235.195312 105.339844 189.242188 C 105.339844 143.285156 142.242188 106.382812 188.195312 106.382812 C 234.152344 106.382812 271.054688 143.285156 271.054688 189.242188 C 271.054688 235.195312 234.152344 272.097656 188.195312 272.097656 Z M 188.195312 126.574219 C 153.382812 126.574219 125.53125 154.425781 125.53125 189.242188 C 125.53125 224.054688 153.382812 251.90625 188.195312 251.90625 C 223.011719 251.90625 250.863281 224.054688 250.863281 189.242188 C 250.863281 154.425781 223.011719 126.574219 188.195312 126.574219 Z M 188.195312 126.574219 " fill-opacity="1" fill-rule="nonzero"/><path fill="#709a06" d="M 188.195312 226.839844 C 167.308594 226.839844 150.597656 210.128906 150.597656 189.242188 C 150.597656 168.351562 167.308594 151.640625 188.195312 151.640625 C 209.085938 151.640625 225.796875 168.351562 225.796875 189.242188 C 225.796875 210.128906 209.085938 226.839844 188.195312 226.839844 Z M 188.195312 172.53125 C 179.144531 172.53125 171.484375 180.1875 171.484375 189.242188 C 171.484375 198.292969 179.144531 205.953125 188.195312 205.953125 C 197.246094 205.953125 204.90625 198.292969 204.90625 189.242188 C 204.90625 180.1875 197.246094 172.53125 188.195312 172.53125 Z M 188.195312 172.53125 " fill-opacity="1" fill-rule="nonzero"/><path fill="#709a06" d="M 278.015625 111.257812 C 278.015625 112.171875 277.929688 113.078125 277.75 113.972656 C 277.570312 114.871094 277.308594 115.742188 276.957031 116.585938 C 276.605469 117.429688 276.179688 118.234375 275.671875 118.992188 C 275.164062 119.753906 274.585938 120.457031 273.9375 121.105469 C 273.292969 121.75 272.589844 122.328125 271.828125 122.835938 C 271.066406 123.34375 270.265625 123.773438 269.421875 124.121094 C 268.574219 124.472656 267.703125 124.738281 266.808594 124.914062 C 265.910156 125.09375 265.003906 125.183594 264.089844 125.183594 C 263.175781 125.183594 262.273438 125.09375 261.375 124.914062 C 260.476562 124.738281 259.605469 124.472656 258.761719 124.121094 C 257.917969 123.773438 257.113281 123.34375 256.355469 122.835938 C 255.59375 122.328125 254.890625 121.75 254.246094 121.105469 C 253.597656 120.457031 253.019531 119.753906 252.511719 118.992188 C 252.003906 118.234375 251.574219 117.429688 251.226562 116.585938 C 250.875 115.742188 250.613281 114.871094 250.433594 113.972656 C 250.253906 113.078125 250.164062 112.171875 250.164062 111.257812 C 250.164062 110.34375 250.253906 109.4375 250.433594 108.539062 C 250.613281 107.644531 250.875 106.773438 251.226562 105.925781 C 251.574219 105.082031 252.003906 104.28125 252.511719 103.519531 C 253.019531 102.757812 253.597656 102.054688 254.246094 101.410156 C 254.890625 100.761719 255.59375 100.1875 256.355469 99.679688 C 257.113281 99.167969 257.917969 98.742188 258.761719 98.390625 C 259.605469 98.039062 260.476562 97.777344 261.375 97.597656 C 262.273438 97.421875 263.175781 97.332031 264.089844 97.332031 C 265.003906 97.332031 265.910156 97.421875 266.808594 97.597656 C 267.703125 97.777344 268.574219 98.039062 269.421875 98.390625 C 270.265625 98.742188 271.066406 99.167969 271.828125 99.679688 C 272.589844 100.1875 273.292969 100.761719 273.9375 101.410156 C 274.585938 102.054688 275.164062 102.757812 275.671875 103.519531 C 276.179688 104.28125 276.605469 105.082031 276.957031 105.925781 C 277.308594 106.773438 277.570312 107.644531 277.75 108.539062 C 277.929688 109.4375 278.015625 110.34375 278.015625 111.257812 Z M 278.015625 111.257812 " fill-opacity="1" fill-rule="nonzero"/></svg>