<svg xmlns="http://www.w3.org/2000/svg" xmlns:xlink="http://www.w3.org/1999/xlink" width="500" zoomAndPan="magnify" viewBox="0 0 375 374.999991" height="500" preserveAspectRatio="xMidYMid meet" version="1.0"><defs><clipPath id="e54707573a"><path d="M 56.25 56.25 L 318.75 56.25 L 318.75 318.75 L 56.25 318.75 Z M 56.25 56.25 " clip-rule="nonzero"/></clipPath></defs><g clip-path="url(#e54707573a)"><path fill="#709a06" d="M 295.1875 318.75 L 79.8125 318.75 C 79.039062 318.75 78.269531 318.710938 77.503906 318.632812 C 76.734375 318.558594 75.972656 318.445312 75.214844 318.292969 C 74.460938 318.140625 73.714844 317.953125 72.976562 317.730469 C 72.238281 317.503906 71.511719 317.246094 70.800781 316.949219 C 70.085938 316.652344 69.390625 316.324219 68.710938 315.960938 C 68.03125 315.597656 67.367188 315.199219 66.726562 314.769531 C 66.085938 314.34375 65.46875 313.882812 64.871094 313.394531 C 64.273438 312.90625 63.703125 312.386719 63.160156 311.839844 C 62.613281 311.296875 62.09375 310.726562 61.605469 310.128906 C 61.117188 309.53125 60.65625 308.914062 60.230469 308.273438 C 59.800781 307.632812 59.402344 306.96875 59.039062 306.289062 C 58.675781 305.609375 58.347656 304.914062 58.050781 304.199219 C 57.753906 303.488281 57.496094 302.761719 57.269531 302.023438 C 57.046875 301.285156 56.859375 300.539062 56.707031 299.785156 C 56.554688 299.027344 56.441406 298.265625 56.367188 297.496094 C 56.289062 296.730469 56.25 295.960938 56.25 295.1875 L 56.25 79.8125 C 56.25 79.039062 56.289062 78.269531 56.367188 77.503906 C 56.441406 76.734375 56.554688 75.972656 56.707031 75.214844 C 56.859375 74.460938 57.046875 73.714844 57.269531 72.976562 C 57.496094 72.238281 57.753906 71.511719 58.050781 70.800781 C 58.347656 70.085938 58.675781 69.390625 59.039062 68.710938 C 59.402344 68.03125 59.800781 67.367188 60.230469 66.726562 C 60.65625 66.085938 61.117188 65.46875 61.605469 64.871094 C 62.09375 64.273438 62.613281 63.703125 63.160156 63.160156 C 63.703125 62.613281 64.273438 62.09375 64.871094 61.605469 C 65.46875 61.117188 66.085938 60.65625 66.726562 60.230469 C 67.367188 59.800781 68.03125 59.402344 68.710938 59.039062 C 69.390625 58.675781 70.085938 58.347656 70.800781 58.050781 C 71.511719 57.753906 72.238281 57.496094 72.976562 57.269531 C 73.714844 57.046875 74.460938 56.859375 75.214844 56.707031 C 75.972656 56.554688 76.734375 56.441406 77.503906 56.367188 C 78.269531 56.289062 79.039062 56.25 79.8125 56.25 L 295.1875 56.25 C 295.960938 56.25 296.730469 56.289062 297.496094 56.367188 C 298.265625 56.441406 299.027344 56.554688 299.785156 56.707031 C 300.539062 56.859375 301.285156 57.046875 302.023438 57.269531 C 302.761719 57.496094 303.488281 57.753906 304.199219 58.050781 C 304.914062 58.347656 305.609375 58.675781 306.289062 59.039062 C 306.96875 59.402344 307.632812 59.800781 308.273438 60.230469 C 308.914062 60.65625 309.53125 61.117188 310.128906 61.605469 C 310.726562 62.09375 311.296875 62.613281 311.839844 63.160156 C 312.386719 63.703125 312.90625 64.273438 313.394531 64.871094 C 313.882812 65.46875 314.34375 66.085938 314.769531 66.726562 C 315.199219 67.367188 315.597656 68.03125 315.960938 68.710938 C 316.324219 69.390625 316.652344 70.085938 316.949219 70.800781 C 317.246094 71.511719 317.503906 72.238281 317.730469 72.976562 C 317.953125 73.714844 318.140625 74.460938 318.292969 75.214844 C 318.445312 75.972656 318.558594 76.734375 318.632812 77.503906 C 318.710938 78.269531 318.75 79.039062 318.75 79.8125 L 318.75 295.1875 C 318.75 295.960938 318.710938 296.730469 318.632812 297.496094 C 318.558594 298.265625 318.445312 299.027344 318.292969 299.785156 C 318.140625 300.539062 317.953125 301.285156 317.730469 302.023438 C 317.503906 302.761719 317.246094 303.488281 316.949219 304.199219 C 316.652344 304.914062 316.324219 305.609375 315.960938 306.289062 C 315.597656 306.96875 315.199219 307.632812 314.769531 308.273438 C 314.34375 308.914062 313.882812 309.53125 313.394531 310.128906 C 312.90625 310.726562 312.386719 311.296875 311.839844 311.839844 C 311.296875 312.386719 310.726562 312.90625 310.128906 313.394531 C 309.53125 313.882812 308.914062 314.34375 308.273438 314.769531 C 307.632812 315.199219 306.96875 315.597656 306.289062 315.960938 C 305.609375 316.324219 304.914062 316.652344 304.199219 316.949219 C 303.488281 317.246094 302.761719 317.503906 302.023438 317.730469 C 301.285156 317.953125 300.539062 318.140625 299.785156 318.292969 C 299.027344 318.445312 298.265625 318.558594 297.496094 318.632812 C 296.730469 318.710938 295.960938 318.75 295.1875 318.75 Z M 79.8125 65.125 C 78.847656 65.128906 77.894531 65.222656 76.949219 65.410156 C 76.003906 65.601562 75.085938 65.878906 74.195312 66.25 C 73.304688 66.617188 72.457031 67.070312 71.65625 67.605469 C 70.855469 68.140625 70.113281 68.75 69.433594 69.433594 C 68.75 70.113281 68.140625 70.855469 67.605469 71.65625 C 67.070312 72.457031 66.617188 73.304688 66.25 74.195312 C 65.878906 75.085938 65.601562 76.003906 65.410156 76.949219 C 65.222656 77.894531 65.128906 78.847656 65.125 79.8125 L 65.125 295.1875 C 65.128906 296.152344 65.222656 297.105469 65.410156 298.050781 C 65.601562 298.996094 65.878906 299.914062 66.25 300.804688 C 66.617188 301.695312 67.070312 302.542969 67.605469 303.34375 C 68.140625 304.144531 68.75 304.886719 69.433594 305.566406 C 70.113281 306.25 70.855469 306.859375 71.65625 307.394531 C 72.457031 307.929688 73.304688 308.382812 74.195312 308.75 C 75.085938 309.121094 76.003906 309.398438 76.949219 309.589844 C 77.894531 309.777344 78.847656 309.871094 79.8125 309.875 L 295.1875 309.875 C 296.152344 309.871094 297.105469 309.777344 298.050781 309.589844 C 298.996094 309.398438 299.914062 309.121094 300.804688 308.75 C 301.695312 308.382812 302.542969 307.929688 303.34375 307.394531 C 304.144531 306.859375 304.886719 306.25 305.566406 305.566406 C 306.25 304.886719 306.859375 304.144531 307.394531 303.34375 C 307.929688 302.542969 308.382812 301.695312 308.75 300.804688 C 309.121094 299.914062 309.398438 298.996094 309.589844 298.050781 C 309.777344 297.105469 309.871094 296.152344 309.875 295.1875 L 309.875 79.8125 C 309.871094 78.847656 309.777344 77.894531 309.589844 76.949219 C 309.398438 76.003906 309.121094 75.085938 308.75 74.195312 C 308.382812 73.304688 307.929688 72.457031 307.394531 71.65625 C 306.859375 70.855469 306.25 70.113281 305.566406 69.433594 C 304.886719 68.75 304.144531 68.140625 303.34375 67.605469 C 302.542969 67.070312 301.695312 66.617188 300.804688 66.25 C 299.914062 65.878906 298.996094 65.601562 298.050781 65.410156 C 297.105469 65.222656 296.152344 65.128906 295.1875 65.125 Z M 79.8125 65.125 " fill-opacity="1" fill-rule="nonzero"/></g><path fill="#709a06" d="M 285.363281 298.863281 L 89.636719 298.863281 C 88.75 298.863281 87.871094 298.773438 87.003906 298.601562 C 86.136719 298.425781 85.292969 298.171875 84.472656 297.832031 C 83.65625 297.492188 82.878906 297.074219 82.140625 296.582031 C 81.402344 296.089844 80.722656 295.53125 80.09375 294.90625 C 79.46875 294.277344 78.910156 293.597656 78.417969 292.859375 C 77.925781 292.121094 77.507812 291.34375 77.167969 290.527344 C 76.828125 289.707031 76.574219 288.863281 76.398438 287.996094 C 76.226562 287.128906 76.136719 286.25 76.136719 285.363281 L 76.136719 89.636719 C 76.136719 88.75 76.226562 87.871094 76.398438 87.003906 C 76.574219 86.136719 76.828125 85.292969 77.167969 84.472656 C 77.507812 83.65625 77.925781 82.878906 78.417969 82.140625 C 78.910156 81.402344 79.46875 80.722656 80.09375 80.09375 C 80.722656 79.46875 81.402344 78.910156 82.140625 78.417969 C 82.878906 77.925781 83.65625 77.507812 84.472656 77.167969 C 85.292969 76.828125 86.136719 76.574219 87.003906 76.398438 C 87.871094 76.226562 88.75 76.136719 89.636719 76.136719 L 285.363281 76.136719 C 286.25 76.136719 287.128906 76.226562 287.996094 76.398438 C 288.863281 76.574219 289.707031 76.828125 290.527344 77.167969 C 291.34375 77.507812 292.125 77.925781 292.859375 78.417969 C 293.597656 78.910156 294.277344 79.46875 294.90625 80.09375 C 295.53125 80.722656 296.089844 81.402344 296.582031 82.140625 C 297.074219 82.878906 297.492188 83.65625 297.832031 84.472656 C 298.171875 85.292969 298.425781 86.136719 298.601562 87.003906 C 298.773438 87.871094 298.863281 88.75 298.863281 89.636719 L 298.863281 285.363281 C 298.863281 286.25 298.773438 287.128906 298.601562 287.996094 C 298.425781 288.863281 298.171875 289.707031 297.832031 290.527344 C 297.492188 291.34375 297.074219 292.121094 296.582031 292.859375 C 296.089844 293.597656 295.53125 294.277344 294.90625 294.90625 C 294.277344 295.53125 293.597656 296.089844 292.859375 296.582031 C 292.121094 297.074219 291.34375 297.492188 290.527344 297.832031 C 289.707031 298.171875 288.863281 298.425781 287.996094 298.601562 C 287.128906 298.773438 286.25 298.863281 285.363281 298.863281 Z M 89.636719 85.015625 C 89.332031 85.015625 89.03125 85.042969 88.734375 85.105469 C 88.4375 85.164062 88.148438 85.25 87.867188 85.367188 C 87.589844 85.484375 87.320312 85.625 87.070312 85.796875 C 86.816406 85.964844 86.585938 86.15625 86.371094 86.371094 C 86.15625 86.585938 85.964844 86.816406 85.796875 87.070312 C 85.625 87.320312 85.484375 87.589844 85.367188 87.867188 C 85.25 88.148438 85.164062 88.4375 85.105469 88.734375 C 85.042969 89.03125 85.015625 89.332031 85.015625 89.636719 L 85.015625 285.363281 C 85.015625 285.667969 85.042969 285.96875 85.105469 286.265625 C 85.164062 286.5625 85.25 286.851562 85.367188 287.132812 C 85.484375 287.410156 85.625 287.679688 85.796875 287.929688 C 85.964844 288.183594 86.15625 288.414062 86.371094 288.628906 C 86.585938 288.84375 86.816406 289.035156 87.070312 289.203125 C 87.320312 289.375 87.589844 289.515625 87.867188 289.632812 C 88.148438 289.75 88.4375 289.835938 88.734375 289.894531 C 89.03125 289.957031 89.332031 289.984375 89.636719 289.984375 L 285.363281 289.984375 C 285.667969 289.984375 285.96875 289.957031 286.265625 289.894531 C 286.5625 289.835938 286.851562 289.75 287.132812 289.632812 C 287.410156 289.515625 287.679688 289.375 287.929688 289.203125 C 288.183594 289.035156 288.414062 288.84375 288.628906 288.628906 C 288.84375 288.414062 289.035156 288.183594 289.203125 287.929688 C 289.375 287.679688 289.515625 287.410156 289.632812 287.132812 C 289.75 286.851562 289.835938 286.5625 289.894531 286.265625 C 289.957031 285.96875 289.984375 285.667969 289.984375 285.363281 L 289.984375 89.636719 C 289.984375 89.332031 289.957031 89.03125 289.894531 88.734375 C 289.835938 88.4375 289.75 88.148438 289.632812 87.867188 C 289.515625 87.589844 289.375 87.320312 289.203125 87.070312 C 289.035156 86.816406 288.84375 86.585938 288.628906 86.371094 C 288.414062 86.15625 288.183594 85.964844 287.929688 85.796875 C 287.679688 85.625 287.410156 85.484375 287.132812 85.367188 C 286.851562 85.25 286.5625 85.164062 286.265625 85.105469 C 285.96875 85.042969 285.667969 85.015625 285.363281 85.015625 Z M 89.636719 85.015625 " fill-opacity="1" fill-rule="nonzero"/><path fill="#709a06" d="M 127.335938 280.417969 L 104.265625 280.417969 C 103.972656 280.417969 103.683594 280.390625 103.398438 280.332031 C 103.113281 280.277344 102.835938 280.191406 102.566406 280.082031 C 102.296875 279.96875 102.039062 279.832031 101.796875 279.671875 C 101.554688 279.507812 101.332031 279.324219 101.125 279.117188 C 100.917969 278.910156 100.734375 278.6875 100.574219 278.445312 C 100.410156 278.203125 100.273438 277.949219 100.164062 277.679688 C 100.050781 277.410156 99.96875 277.132812 99.910156 276.84375 C 99.855469 276.558594 99.824219 276.269531 99.824219 275.980469 L 99.824219 149.09375 C 99.824219 148.804688 99.855469 148.515625 99.910156 148.230469 C 99.96875 147.945312 100.050781 147.664062 100.164062 147.398438 C 100.273438 147.128906 100.410156 146.871094 100.574219 146.628906 C 100.734375 146.386719 100.917969 146.164062 101.125 145.957031 C 101.332031 145.75 101.554688 145.566406 101.796875 145.40625 C 102.039062 145.242188 102.296875 145.105469 102.566406 144.996094 C 102.835938 144.882812 103.113281 144.796875 103.398438 144.742188 C 103.683594 144.683594 103.972656 144.65625 104.265625 144.65625 L 127.335938 144.65625 C 127.625 144.65625 127.914062 144.683594 128.199219 144.742188 C 128.484375 144.796875 128.761719 144.882812 129.03125 144.996094 C 129.300781 145.105469 129.558594 145.242188 129.800781 145.40625 C 130.042969 145.566406 130.265625 145.75 130.472656 145.957031 C 130.679688 146.164062 130.863281 146.386719 131.023438 146.628906 C 131.1875 146.871094 131.324219 147.128906 131.433594 147.398438 C 131.546875 147.664062 131.628906 147.945312 131.6875 148.230469 C 131.746094 148.515625 131.773438 148.804688 131.773438 149.09375 L 131.773438 275.980469 C 131.773438 276.269531 131.746094 276.558594 131.6875 276.84375 C 131.628906 277.132812 131.546875 277.410156 131.433594 277.679688 C 131.324219 277.949219 131.1875 278.203125 131.023438 278.445312 C 130.863281 278.6875 130.679688 278.910156 130.472656 279.117188 C 130.265625 279.324219 130.042969 279.507812 129.800781 279.671875 C 129.558594 279.832031 129.300781 279.96875 129.03125 280.082031 C 128.761719 280.191406 128.484375 280.277344 128.199219 280.332031 C 127.914062 280.390625 127.625 280.417969 127.335938 280.417969 Z M 108.703125 271.542969 L 122.894531 271.542969 L 122.894531 153.535156 L 108.703125 153.535156 Z M 115.273438 132.046875 C 114.046875 132.0625 112.828125 131.953125 111.625 131.71875 C 110.417969 131.484375 109.246094 131.132812 108.113281 130.660156 C 106.980469 130.1875 105.90625 129.605469 104.890625 128.917969 C 103.875 128.226562 102.9375 127.4375 102.082031 126.558594 C 100.40625 124.789062 99.125 122.773438 98.238281 120.507812 C 97.347656 118.238281 96.917969 115.890625 96.945312 113.453125 C 96.945312 102.699219 105.050781 94.59375 115.800781 94.59375 C 126.550781 94.59375 134.359375 102.492188 134.394531 113.382812 C 134.542969 118.367188 132.808594 122.992188 129.496094 126.414062 C 125.996094 130.035156 120.925781 132.035156 115.273438 132.035156 Z M 115.800781 103.472656 C 110.019531 103.472656 105.820312 107.667969 105.820312 113.453125 C 105.820312 119.085938 109.796875 123.171875 115.273438 123.171875 C 118.550781 123.171875 121.261719 122.160156 123.113281 120.242188 C 124.777344 118.523438 125.609375 116.230469 125.519531 113.601562 C 125.519531 113.554688 125.519531 113.503906 125.519531 113.453125 C 125.519531 107.378906 121.703125 103.457031 115.800781 103.457031 Z M 134.394531 113.453125 Z M 134.394531 113.453125 " fill-opacity="1" fill-rule="nonzero"/><path fill="#709a06" d="M 273.617188 280.417969 L 250.546875 280.417969 C 250.257812 280.417969 249.96875 280.390625 249.679688 280.332031 C 249.394531 280.277344 249.117188 280.191406 248.847656 280.082031 C 248.578125 279.96875 248.324219 279.832031 248.082031 279.671875 C 247.839844 279.507812 247.613281 279.324219 247.410156 279.117188 C 247.203125 278.910156 247.019531 278.6875 246.855469 278.445312 C 246.695312 278.203125 246.558594 277.949219 246.445312 277.679688 C 246.335938 277.410156 246.25 277.132812 246.195312 276.84375 C 246.136719 276.558594 246.109375 276.269531 246.109375 275.980469 L 246.109375 202.835938 C 246.109375 192.742188 244.121094 184.46875 240.355469 178.914062 C 236.1875 172.769531 229.921875 169.789062 221.1875 169.789062 C 207.078125 169.789062 197.613281 180.058594 194.496094 190.242188 C 194.472656 190.316406 194.449219 190.386719 194.425781 190.457031 C 193.59375 192.742188 193.117188 196.105469 193.117188 199.691406 L 193.117188 275.980469 C 193.117188 276.269531 193.089844 276.558594 193.03125 276.84375 C 192.976562 277.132812 192.890625 277.410156 192.78125 277.679688 C 192.667969 277.949219 192.53125 278.203125 192.371094 278.445312 C 192.207031 278.6875 192.023438 278.910156 191.816406 279.117188 C 191.613281 279.324219 191.386719 279.507812 191.144531 279.671875 C 190.902344 279.832031 190.648438 279.96875 190.378906 280.082031 C 190.109375 280.191406 189.832031 280.277344 189.546875 280.332031 C 189.257812 280.390625 188.972656 280.417969 188.679688 280.417969 L 165.625 280.417969 C 165.332031 280.417969 165.042969 280.390625 164.757812 280.332031 C 164.472656 280.277344 164.195312 280.191406 163.925781 280.082031 C 163.65625 279.96875 163.402344 279.832031 163.160156 279.671875 C 162.917969 279.507812 162.691406 279.324219 162.488281 279.117188 C 162.28125 278.910156 162.097656 278.6875 161.933594 278.445312 C 161.773438 278.203125 161.636719 277.949219 161.523438 277.679688 C 161.414062 277.410156 161.328125 277.132812 161.273438 276.84375 C 161.214844 276.558594 161.1875 276.269531 161.1875 275.980469 L 161.1875 183.4375 C 161.1875 169.285156 160.871094 159.109375 160.148438 149.425781 C 160.128906 149.121094 160.136719 148.816406 160.179688 148.515625 C 160.21875 148.210938 160.289062 147.917969 160.390625 147.628906 C 160.492188 147.339844 160.625 147.066406 160.78125 146.804688 C 160.941406 146.542969 161.125 146.300781 161.332031 146.078125 C 161.539062 145.855469 161.769531 145.65625 162.019531 145.480469 C 162.269531 145.304688 162.53125 145.15625 162.8125 145.035156 C 163.09375 144.914062 163.382812 144.820312 163.683594 144.761719 C 163.980469 144.699219 164.28125 144.667969 164.589844 144.667969 L 185.035156 144.667969 C 185.601562 144.667969 186.148438 144.769531 186.671875 144.980469 C 187.199219 145.1875 187.667969 145.484375 188.082031 145.871094 C 188.492188 146.253906 188.820312 146.703125 189.058594 147.214844 C 189.300781 147.726562 189.441406 148.265625 189.476562 148.828125 L 190.050781 158.078125 C 193.007812 154.917969 196.316406 152.179688 199.980469 149.871094 C 208.386719 144.582031 218.367188 141.785156 228.832031 141.785156 C 235.835938 141.785156 249.300781 143.320312 260.789062 153.597656 C 272.28125 163.875 278.097656 179.558594 278.097656 200.230469 L 278.097656 276 C 278.097656 276.289062 278.066406 276.582031 278.007812 276.867188 C 277.949219 277.152344 277.863281 277.429688 277.75 277.699219 C 277.636719 277.96875 277.5 278.226562 277.335938 278.46875 C 277.171875 278.710938 276.984375 278.933594 276.777344 279.140625 C 276.566406 279.34375 276.339844 279.527344 276.097656 279.6875 C 275.851562 279.847656 275.59375 279.984375 275.324219 280.09375 C 275.054688 280.203125 274.773438 280.285156 274.488281 280.339844 C 274.199219 280.394531 273.910156 280.421875 273.617188 280.417969 Z M 254.984375 271.542969 L 269.179688 271.542969 L 269.179688 200.210938 C 269.179688 182.175781 264.355469 168.710938 254.832031 160.195312 C 245.191406 151.574219 233.410156 150.640625 228.789062 150.640625 C 209.027344 150.640625 196.195312 161.738281 190.777344 172.113281 C 190.394531 172.847656 189.851562 173.429688 189.144531 173.859375 C 188.4375 174.285156 187.671875 174.5 186.84375 174.5 L 186.320312 174.5 C 185.753906 174.503906 185.210938 174.398438 184.683594 174.191406 C 184.15625 173.984375 183.6875 173.6875 183.277344 173.300781 C 182.863281 172.914062 182.535156 172.464844 182.296875 171.953125 C 182.054688 171.441406 181.917969 170.902344 181.882812 170.339844 L 180.828125 153.535156 L 169.308594 153.535156 C 169.824219 162.070312 170.0625 171.332031 170.0625 183.4375 L 170.0625 271.542969 L 184.257812 271.542969 L 184.257812 199.691406 C 184.257812 195.097656 184.890625 190.789062 186.058594 187.539062 C 187.203125 183.867188 188.855469 180.445312 191.015625 177.265625 C 193.175781 174.085938 195.75 171.285156 198.738281 168.867188 C 200.316406 167.585938 201.988281 166.449219 203.761719 165.457031 C 205.53125 164.460938 207.375 163.625 209.289062 162.949219 C 211.203125 162.269531 213.160156 161.761719 215.164062 161.417969 C 217.164062 161.078125 219.183594 160.90625 221.210938 160.910156 C 232.78125 160.910156 241.949219 165.414062 247.726562 173.933594 C 252.5625 181.0625 255.019531 190.789062 255.019531 202.835938 Z M 254.984375 271.542969 " fill-opacity="1" fill-rule="nonzero"/></svg>